<svg width="35" height="34" viewBox="0 0 35 34" fill="none" xmlns="http://www.w3.org/2000/svg">
<g id="Icon">
<path id="Vector 449 (Stroke)" fill-rule="evenodd" clip-rule="evenodd" d="M21.2049 2.25951C21.6317 2.49743 21.8411 2.99572 21.7126 3.4671L18.8911 13.8125H29.1875C29.6106 13.8125 29.9934 14.0635 30.162 14.4516C30.3306 14.8396 30.2529 15.2907 29.9643 15.6L15.0893 31.5375C14.7559 31.8947 14.2219 31.9785 13.7951 31.7406C13.3684 31.5026 13.1589 31.0044 13.2875 30.533L16.1089 20.1875H5.81252C5.38944 20.1875 5.00667 19.9365 4.83805 19.5485C4.66943 19.1605 4.7471 18.7094 5.03578 18.4001L19.9108 2.46257C20.2442 2.10538 20.7782 2.0216 21.2049 2.25951Z" fill="#262626"/>
</g>
</svg>
