<svg width="24" height="24" viewBox="0 0 24 24" fill="none" xmlns="http://www.w3.org/2000/svg">
<rect width="24" height="24" fill="#F5F5F5"/>
<g id="Home Page - Desktop">
<rect width="1920" height="8969" transform="translate(-1523 -8655)" fill="#F7F7F8"/>
<g id="Footer Section">
<rect width="1920" height="472" transform="translate(-1523 -158)" fill="white"/>
<g id="Container">
<g id="Sub Container">
<g id="Container_2">
<g id="Buttons Container">
<g id="Button">
<rect x="-13.5" y="-13.5" width="51" height="51" rx="7.5" fill="#F7F7F8"/>
<rect x="-13.5" y="-13.5" width="51" height="51" rx="7.5" stroke="#F1F1F3"/>
<g id="Icon" clip-path="url(#clip0_0_1)">
<path id="Vector" d="M24 12C24 5.37258 18.6274 0 12 0C5.37258 0 0 5.37258 0 12C0 17.9895 4.3882 22.954 10.125 23.8542V15.4687H7.07812V12H10.125V9.35625C10.125 6.34875 11.9166 4.6875 14.6576 4.6875C15.9701 4.6875 17.3438 4.92187 17.3438 4.92187V7.875H15.8306C14.34 7.875 13.875 8.80008 13.875 9.75V12H17.2031L16.6711 15.4687H13.875V23.8542C19.6118 22.954 24 17.9895 24 12Z" fill="#333333"/>
</g>
</g>
</g>
</g>
</g>
</g>
</g>
</g>
<defs>
<clipPath id="clip0_0_1">
<rect width="24" height="24" fill="white"/>
</clipPath>
</defs>
</svg>
